<svg width="141" height="141" viewBox="0 0 141 141" fill="none" xmlns="http://www.w3.org/2000/svg">
<path d="M27.1938 106.413C33.1792 101.835 39.8688 98.2254 47.2625 95.5824C54.6563 92.9442 62.4021 91.625 70.5 91.625C78.598 91.625 86.3438 92.9442 93.7375 95.5824C101.131 98.2254 107.821 101.835 113.806 106.413C117.914 101.601 121.113 96.1434 123.404 90.0406C125.69 83.9379 126.833 77.4243 126.833 70.5C126.833 54.891 121.348 41.5987 110.377 30.6231C99.4014 19.6521 86.1091 14.1667 70.5 14.1667C54.891 14.1667 41.601 19.6521 30.6301 30.6231C19.6545 41.5987 14.1667 54.891 14.1667 70.5C14.1667 77.4243 15.3122 83.9379 17.603 90.0406C19.8892 96.1434 23.0862 101.601 27.1938 106.413ZM70.5 77.5417C63.5757 77.5417 57.7358 75.1663 52.9804 70.4155C48.2296 65.66 45.8542 59.8202 45.8542 52.8958C45.8542 45.9715 48.2296 40.1317 52.9804 35.3762C57.7358 30.6254 63.5757 28.25 70.5 28.25C77.4243 28.25 83.2642 30.6254 88.0197 35.3762C92.7705 40.1317 95.1459 45.9715 95.1459 52.8958C95.1459 59.8202 92.7705 65.66 88.0197 70.4155C83.2642 75.1663 77.4243 77.5417 70.5 77.5417ZM70.5 140.917C60.7591 140.917 51.6049 139.067 43.0375 135.368C34.4702 131.673 27.0178 126.657 20.6803 120.32C14.3428 113.982 9.32674 106.53 5.63221 97.9625C1.93299 89.3951 0.083374 80.241 0.083374 70.5C0.083374 60.759 1.93299 51.6049 5.63221 43.0375C9.32674 34.4702 14.3428 27.0177 20.6803 20.6802C27.0178 14.3427 34.4702 9.32436 43.0375 5.62513C51.6049 1.93061 60.7591 0.0833435 70.5 0.0833435C80.241 0.0833435 89.3952 1.93061 97.9625 5.62513C106.53 9.32436 113.982 14.3427 120.32 20.6802C126.657 27.0177 131.673 34.4702 135.368 43.0375C139.067 51.6049 140.917 60.759 140.917 70.5C140.917 80.241 139.067 89.3951 135.368 97.9625C131.673 106.53 126.657 113.982 120.32 120.32C113.982 126.657 106.53 131.673 97.9625 135.368C89.3952 139.067 80.241 140.917 70.5 140.917Z" fill="url(#paint0_linear_48_340)"/>
<defs>
<linearGradient id="paint0_linear_48_340" x1="0.0833749" y1="70.4999" x2="138.091" y2="70.4999" gradientUnits="userSpaceOnUse">
<stop stop-color="#196371"/>
<stop offset="1" stop-color="#2596AB"/>
</linearGradient>
</defs>
</svg>
